<?xml version="1.0" standalone="no"?><!DOCTYPE svg PUBLIC "-//W3C//DTD SVG 1.1//EN" "http://www.w3.org/Graphics/SVG/1.1/DTD/svg11.dtd"><svg t="1786037629672" class="icon" viewBox="0 0 1024 1024" version="1.1" xmlns="http://www.w3.org/2000/svg" p-id="5331" xmlns:xlink="http://www.w3.org/1999/xlink" width="64" height="64"><path d="M833.43113018 769.1435h-64.287v64.287a128.1465 128.1465 0 0 1-0.621 12.6c-0.207 2.0925-0.4635 4.1805-0.7695 6.264a133.0245 133.0245 0 0 1-2.4615 12.375 131.5035 131.5035 0 0 1-5.9355 17.9595 132.057 132.057 0 0 1-5.3955 11.4075 129.2175 129.2175 0 0 1-10.1205 15.984 125.01 125.01 0 0 1-3.8835 4.9725 130.275 130.275 0 0 1-13.041 13.7025 129.3615 129.3615 0 0 1-31.374 20.9655c-1.9035 0.8955-3.825 1.746-5.769 2.547a126.0765 126.0765 0 0 1-17.9595 5.9445c-2.043 0.5085-4.095 0.963-6.156 1.377a133.668 133.668 0 0 1-12.483 1.854 127.872 127.872 0 0 1-12.6045 0.6165h-450a128.25 128.25 0 0 1-12.6-0.6165 133.2585 133.2585 0 0 1-12.483-1.854 136.791 136.791 0 0 1-6.156-1.377 155.7585 155.7585 0 0 1-6.084-1.6875 122.589 122.589 0 0 1-11.88-4.257 128.07 128.07 0 0 1-11.403-5.3865 130.4325 130.4325 0 0 1-20.9565-14.004 130.4055 130.4055 0 0 1-9.351-8.4735 131.832 131.832 0 0 1-8.4735-9.351 125.5815 125.5815 0 0 1-7.515-10.134 129.375 129.375 0 0 1-11.88-22.23 129.0285 129.0285 0 0 1-7.317-24.1155 129.501 129.501 0 0 1-2.3175-18.7785A128.457 128.457 0 0 1 62.00063018 833.4305v-450A128.5425 128.5425 0 0 1 113.98463018 280.16a127.854 127.854 0 0 1 21.618-12.96 127.9485 127.9485 0 0 1 23.7285-8.487 128.412 128.412 0 0 1 31.239-3.8565h64.287V190.574a129.3705 129.3705 0 0 1 1.395-18.8685 128.529 128.529 0 0 1 31.914-67.4775A128.664 128.664 0 0 1 340.11413018 69.515 128.529 128.529 0 0 1 383.43563018 62h450a128.457 128.457 0 0 1 54.9675 12.3435 126.9225 126.9225 0 0 1 16.461 9.324 126.009 126.009 0 0 1 10.134 7.515 125.01 125.01 0 0 1 9.351 8.4735 131.148 131.148 0 0 1 8.469 9.351 124.767 124.767 0 0 1 7.5195 10.134 130.4325 130.4325 0 0 1 6.489 10.8225c0.9945 1.854 1.935 3.735 2.8305 5.6385 0.9045 1.899 1.755 3.825 2.556 5.769a125.55 125.55 0 0 1 4.257 11.88c0.603 2.0115 1.1655 4.041 1.6875 6.0795 0.5085 2.043 0.963 4.095 1.377 6.156a133.2585 133.2585 0 0 1 1.854 12.4785 127.962 127.962 0 0 1 0.6165 12.6045v450a128.1915 128.1915 0 0 1-0.6165 12.6045 133.668 133.668 0 0 1-1.854 12.483 137.97 137.97 0 0 1-1.377 6.156c-0.522 2.0385-1.0845 4.068-1.6875 6.0795a126.0765 126.0765 0 0 1-4.257 11.88c-0.801 1.944-1.6515 3.8655-2.556 5.769-0.8955 1.9035-1.836 3.7845-2.8305 5.6385a131.4 131.4 0 0 1-10.125 15.9795 125.145 125.145 0 0 1-8.0055 9.756 126.297 126.297 0 0 1-13.698 13.041 129.474 129.474 0 0 1-20.9565 14.004 126.936 126.936 0 0 1-23.2875 9.6435 132.0345 132.0345 0 0 1-12.2355 3.069 127.3365 127.3365 0 0 1-12.483 1.8495 127.8855 127.8855 0 0 1-12.6 0.621z m-642.861-450a63.558 63.558 0 0 0-12.537 1.233 64.467 64.467 0 0 0-23.175 9.5985 63.9 63.9 0 0 0-11.9205 10.2825 64.575 64.575 0 0 0-10.4805 15.6825 65.5515 65.5515 0 0 0-3.402 8.829 64.152 64.152 0 0 0-2.7675 18.6615v450a64.5435 64.5435 0 0 0 2.7675 18.657 64.1205 64.1205 0 0 0 13.8825 24.5115 60.759 60.759 0 0 0 4.464 4.4595 60.885 60.885 0 0 0 7.4565 5.823 62.6625 62.6625 0 0 0 5.409 3.24 60.4575 60.4575 0 0 0 5.706 2.7 68.256 68.256 0 0 0 5.94 2.124 64.395 64.395 0 0 0 18.657 2.7675h450a61.3665 61.3665 0 0 0 6.3045-0.306 67.5855 67.5855 0 0 0 6.237-0.927 64.926 64.926 0 0 0 12.06-3.6585 66.0285 66.0285 0 0 0 5.706-2.7 65.988 65.988 0 0 0 5.409-3.24 61.632 61.632 0 0 0 5.067-3.762 65.1735 65.1735 0 0 0 6.849-6.5205 61.272 61.272 0 0 0 4.005-4.878 61.632 61.632 0 0 0 3.5055-5.2425 65.988 65.988 0 0 0 4.2525-8.451 68.427 68.427 0 0 0 2.124-5.94 64.5525 64.5525 0 0 0 2.691-15.507c0.054-1.0485 0.0765-2.1015 0.0765-3.15v-450a61.4385 61.4385 0 0 0-0.3105-6.3 61.0965 61.0965 0 0 0-0.9225-6.246 65.376 65.376 0 0 0-3.6585-12.06 66.753 66.753 0 0 0-2.7-5.7015 64.305 64.305 0 0 0-7.002-10.476 63.333 63.333 0 0 0-6.5205-6.849 62.064 62.064 0 0 0-4.878-4.005 64.143 64.143 0 0 0-38.295-12.6495h-450zM897.71363018 190.565a61.4385 61.4385 0 0 0-0.306-6.3 66.519 66.519 0 0 0-0.927-6.2415 65.25 65.25 0 0 0-3.6585-12.06 66.753 66.753 0 0 0-2.7-5.7015 64.3185 64.3185 0 0 0-7.002-10.476 65.565 65.565 0 0 0-6.5205-6.849 62.4375 62.4375 0 0 0-4.878-4.005 59.9715 59.9715 0 0 0-5.2425-3.5055 66.0465 66.0465 0 0 0-5.562-2.97 66.438 66.438 0 0 0-8.829-3.4065 64.0125 64.0125 0 0 0-18.657-2.7675h-450a64.6695 64.6695 0 0 0-15.624 1.926 64.152 64.152 0 0 0-25.1595 12.6675 64.575 64.575 0 0 0-10.854 11.394 63.9 63.9 0 0 0-7.758 13.698 63.873 63.873 0 0 0-4.194 15.165 63.675 63.675 0 0 0-0.6975 9.432v64.287h321.426a129.312 129.312 0 0 1 25.0875 2.475 129.7485 129.7485 0 0 1 18.2295 5.04 130.14 130.14 0 0 1 17.2935 7.668 129.24 129.24 0 0 1 20.9565 14.004 132.2055 132.2055 0 0 1 9.3465 8.4735 126.7515 126.7515 0 0 1 8.4735 9.3465 129.051 129.051 0 0 1 14.004 20.9565 128.277 128.277 0 0 1 15.183 60.606v321.4305h64.2825a61.3665 61.3665 0 0 0 6.3045-0.306 66.645 66.645 0 0 0 6.237-0.927 63.522 63.522 0 0 0 9.117-2.5245 62.973 62.973 0 0 0 8.649-3.8295 63.1935 63.1935 0 0 0 10.476-7.002 65.385 65.385 0 0 0 6.849-6.525 64.647 64.647 0 0 0 5.8185-7.4565 60.5115 60.5115 0 0 0 3.2445-5.409 71.2845 71.2845 0 0 0 2.7-5.7015 68.6115 68.6115 0 0 0 2.124-5.94 64.728 64.728 0 0 0 2.691-15.507c0.0495-1.053 0.0765-2.106 0.0765-3.1545v-450z M314.42813018000004 576.28475H512.00063018A32.1435 32.1435 0 0 1 512.00063018 640.5717500000001H314.42813018000004A32.1435 32.1435 0 0 1 314.42813018000004 576.28475z" fill="#2c2c2c" p-id="5332"></path></svg>