<?xml version="1.0" standalone="no"?><!DOCTYPE svg PUBLIC "-//W3C//DTD SVG 1.1//EN" "http://www.w3.org/Graphics/SVG/1.1/DTD/svg11.dtd"><svg t="1785236920185" class="icon" viewBox="0 0 1024 1024" version="1.1" xmlns="http://www.w3.org/2000/svg" p-id="5055" xmlns:xlink="http://www.w3.org/1999/xlink" width="64" height="64"><path d="M443.72 323.72a39.96 39.96 0 0 1 56.56000031 0l159.99999938 160.00000031c1.12000031 1.12000031 2.20000031 2.35999969 3.20000062 3.6l0.63999938 0.84a30.07999969 30.07999969 0 0 1 2.00000062 2.99999999c0.28000031 0.48 0.6 0.96 0.84 1.47999939a46.44 46.44 0 0 1 2.11999969 4.52000063l0.88000031 2.4 0.55999968 1.83999937 0.64000032 2.60000062 0.36 2.07999938A35.83999969 35.83999969 0 0 1 672.00000031 512l-0.16000031-3.43999969a19.56 19.56 0 0 1 0.12 2.16L672.00000031 512l-0.04000031 1.36000031-0.12 2.07999938a50.11999969 50.11999969 0 0 1-0.28000031 2.56000031l-0.36 2.08000032c-0.16000031 0.88000031-0.40000031 1.75999969-0.6 2.59999968a24.72 24.72 0 0 1-0.55999969 1.84000031c-0.24 0.79999969-0.55999969 1.56-0.84 2.35999969a32.68000031 32.68000031 0 0 1-2.16 4.51999969l-0.84 1.44a38.32000031 38.32000031 0 0 1-5.88 7.44l3.1999997-3.6-0.27999939 0.36-2.92000031 3.28000031-160.00000031 160.00000031a39.96 39.96 0 1 1-56.55999938-56.56000031L535.4 552.00000031 152 552.00000031a40.00000031 40.00000031 0 0 1-39.72-35.32000031L111.9999997 512a40.00000031 40.00000031 0 0 1 40.0000003-40.00000031l383.4 0-91.68-91.71999938a40.00000031 40.00000031 0 0 1-3.31999969-52.8l3.31999969-3.76000031zM792.00000031 72.00000031a120 120 0 0 1 119.99999999 120l0 639.99999938a120 120 0 0 1-119.99999999 120l-200.00000062 0a40.00000031 40.00000031 0 0 1 0-79.99999969l200.00000062 0a40.00000031 40.00000031 0 0 0 39.99999938-40.00000031L831.99999969 192.00000031a40.00000031 40.00000031 0 0 0-39.99999938-40.00000031l-200.00000062 0a40.00000031 40.00000031 0 0 1 0-79.99999969l200.00000062 0z" fill="#2c2c2c" p-id="5056"></path></svg>